<?xml version="1.0" encoding="utf-8"?>
<!-- Generator: Adobe Illustrator 18.0.0, SVG Export Plug-In . SVG Version: 6.00 Build 0)  -->
<!DOCTYPE svg PUBLIC "-//W3C//DTD SVG 1.1//EN" "http://www.w3.org/Graphics/SVG/1.1/DTD/svg11.dtd">
<svg version="1.1" id="Calque_1" xmlns="http://www.w3.org/2000/svg" xmlns:xlink="http://www.w3.org/1999/xlink" x="0px" y="0px"
	 viewBox="0 0 800 800" enable-background="new 0 0 800 800" xml:space="preserve">
<circle fill="#FFFFFF" stroke="#000000" stroke-miterlimit="10" cx="384.9" cy="392.7" r="258.3"/>
<g>
	
		<image overflow="visible" opacity="0.75" enable-background="new    " width="144" height="153" xlink:href="311C7836.png"  transform="matrix(1 0 0 1 270 487)">
	</image>
	<g>
		<polygon fill="#991915" points="391.4,544.5 292.5,617.9 278.4,495.6 		"/>
	</g>
</g>
<g>
	
		<image overflow="visible" opacity="0.75" enable-background="new    " width="146" height="152" xlink:href="311C783A.png"  transform="matrix(1 0 0 1 370 486)">
	</image>
	<g>
		<polygon fill="#991915" points="493.8,494.1 472.4,615.3 378.1,536.1 		"/>
	</g>
</g>
<g>
	
		<image overflow="visible" opacity="0.75" enable-background="new    " width="154" height="142" xlink:href="311C783B.png"  transform="matrix(1 0 0 1 467 390)">
	</image>
	<g>
		<polygon fill="#991915" points="530.3,398.6 598.7,501 475.8,509 		"/>
	</g>
</g>
<g>
	
		<image overflow="visible" opacity="0.75" enable-background="new    " width="142" height="154" xlink:href="311C783C.png"  transform="matrix(1 0 0 1 506 302)">
	</image>
	<g>
		<polygon fill="#991915" points="514.9,310.4 625,365.4 522.4,433.3 		"/>
	</g>
</g>
<g>
	
		<image overflow="visible" opacity="0.75" enable-background="new    " width="153" height="145" xlink:href="311C7839.png"  transform="matrix(1 0 0 1 441 222)">
	</image>
	<g>
		<polygon fill="#991915" points="450,248 571.8,230.1 526.4,344.6 		"/>
	</g>
</g>
<g>
	
		<image overflow="visible" opacity="0.75" enable-background="new    " width="145" height="153" xlink:href="311C7838.png"  transform="matrix(1 0 0 1 356 147)">
	</image>
	<g>
		<polygon fill="#991915" points="364.3,230.5 461.9,155.4 478,277.5 		"/>
	</g>
</g>
<g>
	
		<image overflow="visible" opacity="0.75" enable-background="new    " width="151" height="149" xlink:href="311C7827.png"  transform="matrix(1 0 0 1 274 140)">
	</image>
	<g>
		<polygon fill="#991915" points="282.4,266 319.5,148.6 402.6,239.5 		"/>
	</g>
</g>
<g>
	
		<image overflow="visible" opacity="0.75" enable-background="new    " width="154" height="140" xlink:href="311C7828.png"  transform="matrix(1 0 0 1 177 231)">
	</image>
	<g>
		<polygon fill="#991915" points="242.4,348.3 185.5,239.1 308.5,244.4 		"/>
	</g>
</g>
<g>
	
		<image overflow="visible" opacity="0.75" enable-background="new    " width="139" height="154" xlink:href="311C7829.png"  transform="matrix(1 0 0 1 128 304)">
	</image>
	<g>
		<polygon fill="#991915" points="242.7,435.4 136.8,372.6 244.2,312.3 		"/>
	</g>
</g>
<g>
	
		<image overflow="visible" opacity="0.75" enable-background="new    " width="154" height="143" xlink:href="191D5F4E.png"  transform="matrix(1 0 0 1 167 401)">
	</image>
	<g>
		<polygon fill="#991915" points="298.1,509.5 175.5,521.1 226.7,409.2 		"/>
	</g>
</g>
<g>
	
		<image overflow="visible" opacity="0.75" enable-background="new    " width="363" height="362" xlink:href="191D5F4A.png"  transform="matrix(1 0 0 1 207 209)">
	</image>
	<g>
		<circle fill="#F6F6F6" cx="381.5" cy="383" r="165.7"/>
	</g>
</g>
<g>
	
		<image overflow="visible" opacity="0.75" enable-background="new    " width="321" height="321" xlink:href="191D5F49.png"  transform="matrix(1 0 0 1 228 229)">
	</image>
	<g>
		<circle fill="#F6F6F6" cx="381.5" cy="382.5" r="140.5"/>
		<circle fill="none" stroke="#FFFFFF" stroke-width="10" stroke-miterlimit="10" cx="381.5" cy="382.5" r="140.5"/>
	</g>
</g>
<g>
	
		<image overflow="visible" opacity="0.75" enable-background="new    " width="212" height="204" xlink:href="191D5F46.png"  transform="matrix(1 0 0 1 283 280)">
	</image>
	<g>
		<polygon fill="#991915" points="382,288.3 410.1,345.3 473,354.4 427.5,398.8 438.2,461.4 382,431.8 325.8,461.4 336.5,398.8 
			291,354.4 353.9,345.3 		"/>
	</g>
</g>
<g id="Calque_1_1_">
	
		<image overflow="visible" opacity="0.75" enable-background="new    " width="1950" height="1971" xlink:href="311C7830.png"  transform="matrix(0.3986 0 0 0.3983 10.6557 5.9401)">
	</image>
	<g>
		<g>
			<g>
				<g>
					<g>
						<g>
							<g>
								<g>
									<defs>
										<path id="SVGID_1_" d="M381.3,21.7c-198.6,0-359.6,163.5-359.6,365s161,365.2,359.6,365.2s359.6-163.5,359.6-365
											S579.9,21.7,381.3,21.7z M381.8,636.5c-136.6,0-247.4-110.8-247.4-247.4s110.8-247.4,247.4-247.4s247.4,110.8,247.4,247.4
											S518.4,636.5,381.8,636.5z"/>
									</defs>
									<clipPath id="SVGID_2_">
										<use xlink:href="#SVGID_1_"  overflow="visible"/>
									</clipPath>
									<g clip-path="url(#SVGID_2_)">
										<g>
											<g>
												<g>
													<path id="xp" fill="#F6F6F6" d="M381.8,388.4L39.7,277.2C88.8,126.1,222.9,28.6,381.8,28.6V388.4z"/>
												</g>
											</g>
											<g>
												<g>
													<path id="acc" fill="#991915" d="M381.8,388.4V28.6c159,0,292.9,97.5,342.1,248.6L381.8,388.4z"/>
												</g>
											</g>
											<g>
												<g>
													<path id="proj" fill="#333333" d="M381.8,388.4l-211.5,291C41.7,586-9.5,428.3,39.7,277.2L381.8,388.4z"/>
												</g>
											</g>
											<g>
												<g>
													<path id="pres" fill="#B91818" d="M381.8,388.4l211.5,291c-128.7,93.4-294.3,93.4-422.9,0L381.8,388.4z"/>
												</g>
											</g>
											<g>
												<g>
													<path id="form" fill="#E8E8E8" d="M381.8,388.4l342.1-111.2C773,428.3,721.7,586,593.2,679.4L381.8,388.4z"/>
												</g>
											</g>
										</g>
									</g>
								</g>
							</g>
						</g>
					</g>
				</g>
			</g>
		</g>
	</g>
</g>
<g id="xpBumper" visibility="hidden">
	
		<image  overflow="visible" opacity="0.75" enable-background="new    " width="168" height="159" xlink:href="191D5F12.png"  transform="matrix(1 0 0 1 40 30)">
	</image>
	<g>
		<path  fill="none" stroke="#F6F6F6" stroke-width="18" stroke-miterlimit="10" d="M57.6,165.8
			C56.1,139,152,49.7,184.5,47.8"/>
	</g>
</g>
<g id="accBumper" visibility="hidden">
	
		<image overflow="visible" opacity="0.75" enable-background="new    " width="173" height="154" xlink:href="191D5F13.png"  transform="matrix(1 0 0 1 559 33)">
	</image>
	<g>
		<path fill="none" stroke="#991915" stroke-width="18" stroke-miterlimit="10" d="M569.1,50.8
			c26.4-4.6,126.2,80.4,131.8,112.5"/>
	</g>
</g>
<g id="formBumper" visibility="hidden">
	
		<image  overflow="visible" opacity="0.75" enable-background="new    " width="85" height="214" xlink:href="191D5F14.png"  transform="matrix(1 0 0 1 721 371)">
	</image>
	<g>
		<path  fill="none" stroke="#E8E8E8" stroke-width="18" stroke-miterlimit="10" d="M769,385.3
			c17,20.7-8.3,149.4-33.4,170"/>
	</g>
</g>
<g id="presBumper" visibility="hidden">
	
		<image  overflow="visible" opacity="0.75" enable-background="new    " width="216" height="69" xlink:href="191D5F17.png"  transform="matrix(1 0 0 1 315 737)">
	</image>
	<g>
		<path  fill="none" stroke="#B91818" stroke-width="18" stroke-miterlimit="10" d="M500.8,751
			c-15.3,22-145.9,33.2-172.6,14.7"/>
	</g>
</g>
<g id="projBumper" visibility="hidden">
	
		<image  overflow="visible" opacity="0.75" enable-background="new    " width="106" height="202" xlink:href="191D5F10.png"  transform="matrix(1 0 0 1 -7 427)">
	</image>
	<g>
		<path fill="none" stroke="#333333" stroke-width="16" stroke-miterlimit="10" d="M74,598.8
			c-25.5-8.3-73.6-130.3-63.5-161.2"/>
	</g>
</g>
</svg>
